<?xml version="1.0" encoding="utf-8"?>
<!-- Generator: Adobe Illustrator 24.0.2, SVG Export Plug-In . SVG Version: 6.00 Build 0)  -->
<svg version="1.0" id="Layer_1" xmlns="http://www.w3.org/2000/svg" xmlns:xlink="http://www.w3.org/1999/xlink" x="0px" y="0px"
	 viewBox="0 0 341.07 341.16" style="enable-background:new 0 0 341.07 341.16;" xml:space="preserve">
<style type="text/css">
	.st0{fill:#FDFDFD;}
	.st1{fill:#0A0A0A;}
</style>
<path d="M341.08,171.05c0,55.52-0.03,111.03,0.08,166.55c0.01,2.94-0.56,3.53-3.52,3.53c-111.33-0.1-222.66-0.1-334,0.02
	c-3.39,0-3.62-1.04-3.62-3.86C0.1,226.11,0.1,114.94,0.01,3.76c0-3.09,0.62-3.75,3.74-3.75C114.93,0.11,226.12,0.12,337.31,0
	c3.46,0,3.85,1.03,3.84,4.07C341.05,59.73,341.08,115.39,341.08,171.05z"/>
<path class="st0" d="M84.77,124.6c-23.37,0-45.83-0.1-68.28,0.09c-3.83,0.03-4.99-0.84-4.9-4.83c0.29-12.48,0.21-24.97,0.03-37.46
	c-0.05-3.07,0.72-3.86,3.83-3.85c43.63,0.11,87.26,0.11,130.88,0c3.3-0.01,4.18,0.88,4.12,4.14c-0.2,11.65-0.17,23.31-0.01,34.96
	c0.04,3.18-0.85,5.63-2.81,8.13c-22.7,28.92-45.31,57.92-67.93,86.91c-1,1.28-1.94,2.61-2.96,3.98c1.51,1.28,3.04,0.67,4.41,0.67
	c21.48,0.05,42.96,0.15,64.44-0.07c4.03-0.04,4.95,1.14,4.87,4.98c-0.24,12.48-0.2,24.98-0.01,37.46c0.05,3.12-0.84,3.87-3.89,3.87
	c-43.79-0.1-87.59-0.09-131.38,0c-2.86,0.01-3.58-0.83-3.55-3.61c0.15-12.32,0.16-24.64-0.01-36.96c-0.04-2.8,1.22-4.66,2.75-6.65
	c22.41-29.15,44.8-58.31,67.19-87.47C82.46,127.73,83.32,126.55,84.77,124.6z"/>
<path class="st0" d="M157.62,170.96c0-29.14,0.11-58.27-0.12-87.41c-0.03-4.33,1.23-5.08,5.22-5.02c16.31,0.24,32.64,0.2,48.95,0.01
	c3.36-0.04,4.06,0.98,4.03,4.15c-0.15,17.31-0.19,34.63,0.02,51.94c0.05,3.7-1.2,4.32-4.51,4.22c-7.65-0.24-15.32,0.02-22.98-0.11
	c-3.98-0.07-6.33,1.08-6.32,5.57c0.02,15.81-0.13,31.62-0.16,47.44c-0.01,3.1,1.78,4.39,4.82,4.38c8.49,0,16.98,0.21,25.47,0.09
	c2.77-0.04,3.66,0.65,3.64,3.54c-0.12,20.14-0.11,40.29-0.01,60.44c0.01,2.52-0.51,3.41-3.24,3.39c-17.15-0.13-34.3-0.19-51.45,0.03
	c-3.74,0.05-3.39-1.85-3.39-4.25C157.63,229.9,157.62,200.43,157.62,170.96z"/>
<path class="st0" d="M328.81,171.16c0,29.3-0.09,58.6,0.1,87.9c0.03,3.86-1.07,4.59-4.68,4.55c-16.48-0.2-32.97-0.17-49.45-0.01
	c-3.21,0.03-4.2-0.74-4.17-4.08c0.17-19.64,0.17-39.29,0-58.93c-0.03-3.57,1.04-4.44,4.47-4.37c9.99,0.22,19.98,0.11,29.97,0.06
	c5.89-0.03,7.12-1.01,7.2-6.94c0.21-15.31,0.16-30.63,0.24-45.95c0.02-3.76-2.41-4.26-5.34-4.26c-10.49,0.01-20.98-0.13-31.47,0.08
	c-3.67,0.07-5.17-0.57-5.1-4.79c0.28-17.31,0.19-34.63,0.04-51.94c-0.03-3.04,0.7-3.94,3.83-3.91c16.82,0.16,33.63,0.19,50.45-0.02
	c3.48-0.04,3.98,1.17,3.97,4.22C328.77,112.22,328.81,141.69,328.81,171.16z"/>
<path class="st0" d="M246.89,145.46c18.15,0,36.31,0.1,54.46-0.09c3.64-0.04,4.89,0.76,4.8,4.63c-0.27,11.65-0.19,23.32-0.04,34.98
	c0.04,3.1-0.58,4.34-4.07,4.33c-36.65-0.13-73.3-0.13-109.95,0c-3.43,0.01-4.16-1.11-4.12-4.27c0.16-11.66,0.19-23.32-0.02-34.98
	c-0.06-3.51,0.97-4.39,4.46-4.43C212.12,145.37,246.89,145.54,246.89,145.46z"/>
<path class="st1" d="M247.17,164.69c9.3,0,18.6-0.03,27.9,0.02c2.31,0.01,5.23-0.13,5.33,3.04c0.12,3.67-3.07,3.29-5.49,3.3
	c-18.6,0.04-37.2,0.04-55.8-0.01c-2.39-0.01-5.66,0.49-5.56-3.19c0.09-3.52,3.29-3.12,5.72-3.13
	C228.57,164.66,237.87,164.69,247.17,164.69z"/>
</svg>
